<?xml version="1.0" encoding="utf-8"?>
<!-- Generator: Adobe Illustrator 17.0.0, SVG Export Plug-In . SVG Version: 6.00 Build 0)  -->
<!DOCTYPE svg PUBLIC "-//W3C//DTD SVG 1.1//EN" "http://www.w3.org/Graphics/SVG/1.1/DTD/svg11.dtd">


<svg version="1.1" id="track-contour" xmlns="http://www.w3.org/2000/svg" xmlns:xlink="http://www.w3.org/1999/xlink" x="0px"
	 y="0px" viewBox="0 0 270 242" style="enable-background:new 0 0 270 242;" xml:space="preserve">
	 
<defs>
	<style type="text/css">
		.st0 {
			stroke-dasharray:1200;
			stroke-dashoffset:0;
			-webkit-animation: dash 4s linear forwards;
			-0-animation: dash 4s linear forwards;
			-moz-animation: dash 4s linear forwards;
			animation:dash 4s linear forwards;
		}
		
		#track-contour{
			cursor:pointer;
		}
		
		#track-contour .st1:hover {
				fill:white;
				transition: .8s;
		}
		
		
		#track-contour.clickit .st1{
			fill:yellow;
		}
		
		@-webkit-keyframes dash {
			from{
				stroke-dashoffset:1200;
			}
			to{
				stroke-dashoffset:0;
			}
		}
		.st0{fill:none;stroke:#CCCCCC;stroke-width:2.9109;stroke-linecap:round;stroke-linejoin:round;stroke-miterlimit:10;}
		.st1{fill:#3333FF;}
		.st2{fill:#CC0000;}
	</style>
	
	
	<script type="text/javascript">
		var pclicker= document.querySelector('#track-contour');
		pclicker.addEventListener('click',function(){
		this.classList.toggle('clickit');
		});
	</script>
	
	</defs>
		<path id="konturas" class="st0" d="M263.295,61.57c-0.267-4.994-5.543-6.354-8.236-9.647c-0.628-2.953,1.139-5.77,0.071-8.954
			c-0.84-2.504-2.682-4.326-4.713-5.943c-4.754-3.783-10.794-7.001-16.785-8.253c-7.654-1.6-10.173,6.081-13.584,11.37
			c-4.197,6.508-9.58,10.606-17.16,6.35c3.541-1.86,9.151-2.59,11.482-6.109c1.945-2.936-0.615-6.442-3.071-8.107
			c-3.765-2.553-9.207-2.469-13.433-1.252c-4.754,1.37-8.834,7.61-13.742,7.61c-6.728,0-11.573-5.183-17.915-6.333
			c-5.407-0.98-10.89-1.018-16.306-1.798c-3.016-0.435-7.823-2.324-8.993-5.522c1.04-4.431,4.341-9.423,2.356-14.069
			c-2.194-5.137-9.586-3.366-13.857-2.642c-4.878,0.827-9.697,1.969-14.506,3.118c-4.378,1.045-7.471,1.759-8.765,6.465
			c-2.749-0.499-5.43-1.37-8.262-1.137c-3.013,0.248-5.074,1.75-7.687,3.01c-3.217-1.403-4.145-5.818-7.884-6.996
			c-3.907-1.231-8.522,1.756-10.708,4.87c-1.942,2.768-5.032,3.266-7.534,5.513c-4.89,4.391-1.998,7.579,0.688,12.001
			c1.525,2.509-0.174,4.327-2.152,5.889c-3.928,3.102-8.647,5.068-12.598,8.188c-2.25,1.777-4.345,3.814-5.827,6.283
			c-1.438,2.396-1.819,5.408-3.578,7.58c-5.841,7.212-16.619,8.498-24.489,12.496c-10.278,5.22-2.455,15.357,0.5,23.003
			c1.775,4.59,2.26,8.862,0.197,13.436c-2.145,4.755-5.422,8.931-7.169,13.878c-3.588,10.161,2.847,18.677,9.695,25.579
			c1.558,1.571,3.364,3.178,4.386,5.173c0.806,1.576,0.503,3.409,1.509,4.945c1.617,2.468,3.915,1.871,6.398,1.836
			c1.327,1.548,1.145,3.832,2.692,5.387c2.147,2.158,5.451,2.636,8.365,2.636c4.186,0,8.343-0.825,12.458-1.49
			c2.619-0.424,7.296-1.828,9.845-0.531c2.94,3.895-6.825,5.585-8.823,5.505c-5.639-0.223-11.306,0.396-16.67,2.186
			c-7.741,2.583-24.425,11.475-15.908,21.54l0.094,0.109c0.353,1.949-1.558,4.696-2.466,6.221c-2.263,3.8-5.028,7.34-7.941,10.668
			c-3.228,2.478-6.782,6.251-6.825,10.578c-0.031,3.208,3.068,8.268,6.253,9.38c8.041,2.809,14.951-5.822,21.289-9.161
			c3.996-2.106,6.899-5.117,5.351-9.933c-0.587-1.826-2.045-3.516-1.977-5.502c0.085-2.488,2.157-4.47,4.004-5.88
			c1.329-1.014,2.987-0.369,4.566-0.493c1.687-0.132,3.361-0.534,4.926-1.171c3.249-1.322,6.285-3.215,9.232-5.093
			c7.883-5.021,15.4-10.676,22.573-16.653c3.402-2.834,6.684-5.781,9.363-9.322c1.788-2.362,3.178-5.021,5.09-7.289
			c4.466-5.296,11.643-7.924,17.884-10.547c6.718-2.824,13.529-5.433,20.352-7.994c12.083-4.535,24.235-8.901,36.435-13.115
			c6.974-1.989,34.252-11.13,22.477-22.558l-0.266-0.258l-0.318-0.19c-10.116-6.04-11.191-8.377-11.256-9.006
			c2.193-3.309,9.155,0.622,11.838,1.416c4.628,1.369,9.434,2.07,14.168,0.83c7.262-1.903,14.813-7.603,18.32-14.306
			c1.654-3.161,7.401-1.979,10.32-3.432c4.659-2.318,4.546-9.215,6.076-13.465c1.918-5.328,5.675-3.057,10.332-3.057
			C257.845,69.41,263.569,66.684,263.295,61.57C263.111,58.121,263.365,62.866,263.295,61.57z"/>
			
	<g id="points">
		<g id="p8">
			<ellipse class="st1" cx="249.466" cy="35.465" rx="5.299" ry="5.274"/>
		</g>
		<g id="p7">
			<ellipse class="st1" cx="208.879" cy="103.59" rx="5.299" ry="5.274"/>
		</g>
		<g id="p6">
			<ellipse class="st1" cx="132.372" cy="148.515" rx="5.299" ry="5.274"/>
		</g>
		<g id="p5">
			<ellipse class="st2" cx="165.363" cy="32.563" rx="5.299" ry="5.274"/>
		</g>
		<g id="p4">
			<ellipse class="st2" cx="45.834" cy="54.437" rx="5.299" ry="5.274"/>
		</g>
		<g id="p3">
			<ellipse class="st2" cx="9.267" cy="133.547" rx="5.299" ry="5.274"/>
		</g>
		<g id="p2_1_">
			<ellipse class="st2" cx="15.276" cy="213.184" rx="5.299" ry="5.274"/>
		</g>
		<g id="p1">
			<ellipse class="st2" cx="62.995" cy="196.06" rx="8.744" ry="8.702"/>
		</g>
	</g>
</svg>
